<?xml version="1.0" encoding="UTF-8" standalone="no"?>
<svg
   xmlns:dc="http://purl.org/dc/elements/1.1/"
   xmlns:cc="http://creativecommons.org/ns#"
   xmlns:rdf="http://www.w3.org/1999/02/22-rdf-syntax-ns#"
   xmlns:svg="http://www.w3.org/2000/svg"
   xmlns="http://www.w3.org/2000/svg"
   xmlns:sodipodi="http://sodipodi.sourceforge.net/DTD/sodipodi-0.dtd"
   xmlns:inkscape="http://www.inkscape.org/namespaces/inkscape"
   inkscape:version="1.0 (4035a4fb49, 2020-05-01)"
   sodipodi:docname="action-overlays.svg"
   id="svg71"
   version="1.1"
   height="70"
   width="70">
  <metadata
     id="metadata77">
    <rdf:RDF>
      <cc:Work
         rdf:about="">
        <dc:format>image/svg+xml</dc:format>
        <dc:type
           rdf:resource="http://purl.org/dc/dcmitype/StillImage" />
        <dc:title />
      </cc:Work>
    </rdf:RDF>
  </metadata>
  <defs
     id="defs75" />
  <sodipodi:namedview
     inkscape:document-rotation="0"
     inkscape:current-layer="svg71"
     inkscape:window-maximized="1"
     inkscape:window-y="0"
     inkscape:window-x="0"
     inkscape:cy="32.379943"
     inkscape:cx="38.989656"
     inkscape:zoom="9.8333334"
     showgrid="true"
     id="namedview73"
     inkscape:window-height="1015"
     inkscape:window-width="1920"
     inkscape:pageshadow="2"
     inkscape:pageopacity="0"
     guidetolerance="10"
     gridtolerance="10"
     objecttolerance="10"
     borderopacity="1"
     bordercolor="#666666"
     pagecolor="#c8c8c8">
    <inkscape:grid
       id="grid850"
       type="xygrid" />
  </sodipodi:namedview>
  <g
     transform="matrix(1.375,0,0,1.375,0,-20.749999)"
     id="remove-normal">
    <rect
       id="rect2"
       y="34"
       x="0"
       height="16"
       width="16"
       style="opacity:0.00100002" />
    <path
       inkscape:connector-curvature="0"
       id="path4"
       d="M 13.818182,41.999999 A 5.8181817,5.8181817 0 0 1 8,47.81818 5.8181817,5.8181817 0 0 1 2.1818182,41.999999 5.8181817,5.8181817 0 0 1 8,36.181817 a 5.8181817,5.8181817 0 0 1 5.818182,5.818182 z"
       style="fill:#1a1a1a;fill-opacity:1;stroke-width:0.83116883" />
    <rect
       id="rect6"
       transform="rotate(90)"
       y="-10.909091"
       x="41.272728"
       height="5.818182"
       width="1.4545455"
       style="fill:#ffffff;stroke-width:0.72727275" />
  </g>
  <g
     transform="matrix(1.375,0,0,1.375,0,-20.749999)"
     id="add-normal">
    <rect
       id="rect9"
       y="18"
       x="0"
       height="16"
       width="16"
       style="opacity:0.00100002" />
    <path
       inkscape:connector-curvature="0"
       id="path11"
       d="M 13.818182,25.999999 A 5.8181817,5.8181817 0 0 1 8,31.81818 5.8181817,5.8181817 0 0 1 2.1818182,25.999999 5.8181817,5.8181817 0 0 1 8,20.181817 a 5.8181817,5.8181817 0 0 1 5.818182,5.818182 z"
       style="fill:#1a1a1a;fill-opacity:1;stroke-width:0.83116883" />
    <path
       inkscape:connector-curvature="0"
       id="rect13"
       transform="matrix(0.72727273,0,0,0.72727273,0,18)"
       d="m 10,7 v 3 H 7 v 2 h 3 v 3 h 2 v -3 h 3 V 10 H 12 V 7 Z"
       style="fill:#ffffff;stroke-width:1" />
  </g>
  <g
     transform="matrix(1.375,0,0,1.375,0,-20.749999)"
     id="open-normal">
    <rect
       id="rect18"
       y="50"
       x="0"
       height="16"
       width="16"
       style="opacity:0.00100002" />
    <path
       inkscape:connector-curvature="0"
       id="path20"
       d="M 13.818182,57.999999 A 5.8181817,5.8181817 0 0 1 8,63.81818 5.8181817,5.8181817 0 0 1 2.1818182,57.999999 5.8181817,5.8181817 0 0 1 8,52.181817 a 5.8181817,5.8181817 0 0 1 5.818182,5.818182 z"
       style="fill:#1a1a1a;fill-opacity:1;stroke-width:0.83116883" />
    <path
       inkscape:connector-curvature="0"
       id="path22"
       d="m 7.9999999,55.818182 1.4545454,1.818182 1.4545457,1.818181 H 7.9999997 5.0909089 l 1.4545454,-1.818181 z"
       style="fill:#ffffff;stroke-width:0.66452283" />
  </g>
  <g
     id="remove-hover"
     transform="matrix(1.375,0,0,1.375,23,-20.749999)">
    <rect
       style="opacity:0.00100002"
       width="16"
       height="16"
       x="0"
       y="34"
       id="rect853" />
    <path
       style="fill:#333333;fill-opacity:1;stroke-width:0.83116883"
       d="M 13.818182,41.999999 A 5.8181817,5.8181817 0 0 1 8,47.81818 5.8181817,5.8181817 0 0 1 2.1818182,41.999999 5.8181817,5.8181817 0 0 1 8,36.181817 a 5.8181817,5.8181817 0 0 1 5.818182,5.818182 z"
       id="path855"
       inkscape:connector-curvature="0" />
    <rect
       style="fill:#ffffff;stroke-width:0.72727275"
       width="1.4545455"
       height="5.818182"
       x="41.272728"
       y="-10.909091"
       transform="rotate(90)"
       id="rect857" />
  </g>
  <g
     id="add-hover"
     transform="matrix(1.375,0,0,1.375,23,-20.749999)">
    <rect
       style="opacity:0.00100002"
       width="16"
       height="16"
       x="0"
       y="18"
       id="rect861" />
    <path
       style="fill:#333333;fill-opacity:1;stroke-width:0.83116883"
       d="M 13.818182,25.999999 A 5.8181817,5.8181817 0 0 1 8,31.81818 5.8181817,5.8181817 0 0 1 2.1818182,25.999999 5.8181817,5.8181817 0 0 1 8,20.181817 a 5.8181817,5.8181817 0 0 1 5.818182,5.818182 z"
       id="path863"
       inkscape:connector-curvature="0" />
    <path
       inkscape:connector-curvature="0"
       style="fill:#ffffff;stroke-width:1"
       d="m 10,7 v 3 H 7 v 2 h 3 v 3 h 2 v -3 h 3 V 10 H 12 V 7 Z"
       transform="matrix(0.72727273,0,0,0.72727273,0,18)"
       id="path865" />
  </g>
  <g
     id="open-hover"
     transform="matrix(1.375,0,0,1.375,23,-20.749999)">
    <rect
       style="opacity:0.00100002"
       width="16"
       height="16"
       x="0"
       y="50"
       id="rect869" />
    <path
       style="fill:#333333;fill-opacity:1;stroke-width:0.83116883"
       d="M 13.818182,57.999999 A 5.8181817,5.8181817 0 0 1 8,63.81818 5.8181817,5.8181817 0 0 1 2.1818182,57.999999 5.8181817,5.8181817 0 0 1 8,52.181817 a 5.8181817,5.8181817 0 0 1 5.818182,5.818182 z"
       id="path871"
       inkscape:connector-curvature="0" />
    <path
       style="fill:#ffffff;stroke-width:0.66452283"
       d="m 7.9999999,55.818182 1.4545454,1.818182 1.4545457,1.818181 H 7.9999997 5.0909089 l 1.4545454,-1.818181 z"
       id="path873"
       inkscape:connector-curvature="0" />
  </g>
  <g
     transform="matrix(1.375,0,0,1.375,48,-20.749999)"
     id="remove-pressed">
    <rect
       id="rect877"
       y="34"
       x="0"
       height="16"
       width="16"
       style="opacity:0.00100002" />
    <path
       inkscape:connector-curvature="0"
       id="path879"
       d="M 13.818182,41.999999 A 5.8181817,5.8181817 0 0 1 8,47.81818 5.8181817,5.8181817 0 0 1 2.1818182,41.999999 5.8181817,5.8181817 0 0 1 8,36.181817 a 5.8181817,5.8181817 0 0 1 5.818182,5.818182 z"
       style="fill:#285fdc;fill-opacity:1;stroke-width:0.83116883" />
    <rect
       id="rect881"
       transform="rotate(90)"
       y="-10.909091"
       x="41.272728"
       height="5.818182"
       width="1.4545455"
       style="fill:#ffffff;stroke-width:0.72727275" />
  </g>
  <g
     transform="matrix(1.375,0,0,1.375,48,-20.749999)"
     id="add-pressed">
    <rect
       id="rect885"
       y="18"
       x="0"
       height="16"
       width="16"
       style="opacity:0.00100002" />
    <path
       inkscape:connector-curvature="0"
       id="path887"
       d="M 13.818182,25.999999 A 5.8181817,5.8181817 0 0 1 8,31.81818 5.8181817,5.8181817 0 0 1 2.1818182,25.999999 5.8181817,5.8181817 0 0 1 8,20.181817 a 5.8181817,5.8181817 0 0 1 5.818182,5.818182 z"
       style="fill:#285fdc;fill-opacity:1;stroke-width:0.83116883" />
    <path
       id="path889"
       transform="matrix(0.72727273,0,0,0.72727273,0,18)"
       d="m 10,7 v 3 H 7 v 2 h 3 v 3 h 2 v -3 h 3 V 10 H 12 V 7 Z"
       style="fill:#ffffff;stroke-width:1"
       inkscape:connector-curvature="0" />
  </g>
  <g
     transform="matrix(1.375,0,0,1.375,48,-20.749999)"
     id="open-pressed">
    <rect
       id="rect893"
       y="50"
       x="0"
       height="16"
       width="16"
       style="opacity:0.00100002" />
    <path
       inkscape:connector-curvature="0"
       id="path895"
       d="M 13.818182,57.999999 A 5.8181817,5.8181817 0 0 1 8,63.81818 5.8181817,5.8181817 0 0 1 2.1818182,57.999999 5.8181817,5.8181817 0 0 1 8,52.181817 a 5.8181817,5.8181817 0 0 1 5.818182,5.818182 z"
       style="fill:#285fdc;fill-opacity:1;stroke-width:0.83116883" />
    <path
       inkscape:connector-curvature="0"
       id="path897"
       d="m 7.9999999,55.818182 1.4545454,1.818182 1.4545457,1.818181 H 7.9999997 5.0909089 l 1.4545454,-1.818181 z"
       style="fill:#ffffff;stroke-width:0.66452283" />
  </g>
</svg>
