<?xml version="1.0" encoding="UTF-8" standalone="no"?>
<svg
   xmlns:dc="http://purl.org/dc/elements/1.1/"
   xmlns:cc="http://creativecommons.org/ns#"
   xmlns:rdf="http://www.w3.org/1999/02/22-rdf-syntax-ns#"
   xmlns:svg="http://www.w3.org/2000/svg"
   xmlns="http://www.w3.org/2000/svg"
   xmlns:sodipodi="http://sodipodi.sourceforge.net/DTD/sodipodi-0.dtd"
   xmlns:inkscape="http://www.inkscape.org/namespaces/inkscape"
   inkscape:version="1.0 (4035a4fb49, 2020-05-01)"
   sodipodi:docname="media.svg"
   id="svg67"
   viewBox="0 0 22 22"
   version="1.1"
   height="22"
   width="22">
  <metadata
     id="metadata71">
    <rdf:RDF>
      <cc:Work
         rdf:about="">
        <dc:format>image/svg+xml</dc:format>
        <dc:type
           rdf:resource="http://purl.org/dc/dcmitype/StillImage" />
        <dc:title />
      </cc:Work>
    </rdf:RDF>
  </metadata>
  <sodipodi:namedview
     inkscape:document-rotation="0"
     inkscape:current-layer="svg67"
     inkscape:window-maximized="1"
     inkscape:window-y="0"
     inkscape:window-x="0"
     inkscape:cy="16.234151"
     inkscape:cx="17.777241"
     inkscape:zoom="6.5568083"
     showgrid="true"
     id="namedview69"
     inkscape:window-height="1015"
     inkscape:window-width="1920"
     inkscape:pageshadow="2"
     inkscape:pageopacity="0"
     guidetolerance="10"
     gridtolerance="10"
     objecttolerance="10"
     borderopacity="1"
     bordercolor="#666666"
     pagecolor="#c8c8c8">
    <inkscape:grid
       id="grid878"
       type="xygrid" />
  </sodipodi:namedview>
  <defs
     id="defs3">
    <style
       type="text/css"
       id="current-color-scheme">.ColorScheme-Text { color:#dedede; } .ColorScheme-Highlight { color:#5294e2; } .ColorScheme-ButtonBackground { color:#dedede; }</style>
  </defs>
  <g
     id="media-record"
     transform="translate(22,-1030.4)"
     style="fill:#000000">
    <rect
       y="1030.4"
       width="22"
       height="22"
       opacity="0.00100002"
       id="rect5"
       x="0" />
    <path
       class="ColorScheme-Highlight"
       d="m 11,1035.4 c -3.311,0 -6,2.6888 -6,6 0,3.311 2.689,6 6,6 3.311,0 6,-2.689 6,-6 0,-3.3112 -2.689,-6 -6,-6 z"
       enable-background="new"
       fill="#f96060"
       id="path7"
       style="fill:#ff3232;fill-opacity:1" />
  </g>
  <g
     id="media-playback-stop"
     transform="translate(44,-1030.4)"
     style="fill:#000000">
    <rect
       y="1030.4"
       width="22"
       height="22"
       opacity="0.00100002"
       id="rect10"
       x="0" />
    <path
       class="ColorScheme-Text"
       d="m 5,1035.4 v 12 h 12 v -12 z"
       enable-background="new"
       fill="#dedede"
       id="path12"
       style="fill:#ffffff;fill-opacity:1" />
  </g>
  <g
     id="media-skip-forward"
     transform="translate(66,-1030.4)"
     style="fill:#000000">
    <rect
       y="1030.4"
       width="22"
       height="22"
       opacity="0.00100002"
       id="rect15"
       x="0" />
    <path
       class="ColorScheme-Text"
       d="m 19,1037.4 v 8 h -2 v -8 z m -2,4 -7,4 v -8 z m -7,0 -7,4 v -8 z"
       enable-background="new"
       fill="#dedede"
       id="path17"
       style="fill:#ffffff;fill-opacity:1" />
  </g>
  <g
     id="media-skip-backward"
     transform="matrix(-1,0,0,1,110,-1030.4)"
     style="fill:#000000">
    <rect
       y="1030.4"
       width="22"
       height="22"
       opacity="0.00100002"
       id="rect20"
       x="0" />
    <path
       class="ColorScheme-Text"
       d="m 19,1037.4 v 8 h -2 v -8 z m -2,4 -7,4 v -8 z m -7,0 -7,4 v -8 z"
       enable-background="new"
       fill="#dedede"
       id="path22"
       style="fill:#ffffff;fill-opacity:1" />
  </g>
  <g
     id="media-seek-forward"
     transform="translate(110,-1030.4)"
     style="fill:#000000">
    <rect
       y="1030.4"
       width="22"
       height="22"
       opacity="0.00100002"
       id="rect25"
       x="0" />
    <path
       class="ColorScheme-Text"
       d="m 11,1037.4 7,4 -7,4 z m 0,4 -7,4 v -8 z"
       enable-background="new"
       fill="#dedede"
       id="path27"
       style="fill:#ffffff;fill-opacity:1" />
  </g>
  <g
     id="media-seek-backward"
     transform="matrix(-1,0,0,1,154,-1030.4)"
     style="fill:#000000">
    <rect
       y="1030.4"
       width="22"
       height="22"
       opacity="0.00100002"
       id="rect30"
       x="0" />
    <path
       class="ColorScheme-Text"
       d="m 11,1037.4 7,4 -7,4 z m 0,4 -7,4 v -8 z"
       enable-background="new"
       fill="#dedede"
       id="path32"
       style="fill:#ffffff;fill-opacity:1" />
  </g>
  <g
     id="media-eject"
     transform="translate(-44,-1030.4)"
     style="fill:#000000">
    <rect
       y="1030.4"
       width="22"
       height="22"
       opacity="0.00100002"
       id="rect35"
       x="0" />
    <path
       class="ColorScheme-Text"
       d="m 11,1036.4 -5,5 v 1 h 10 v -1 z m -5,8 v 2 h 10 v -2 z"
       color="#dedede"
       display="block"
       fill="#dedede"
       id="path37"
       style="fill:#ffffff;fill-opacity:1" />
  </g>
  <g
     id="media-playback-pause"
     transform="translate(-22,-1030.4)"
     style="fill:#000000">
    <rect
       y="1030.4"
       width="22"
       height="22"
       opacity="0.00100002"
       id="rect40"
       x="0" />
    <path
       class="ColorScheme-Text"
       d="m 5,1035.4 v 12 h 4 v -12 z m 8,0 v 12 h 4 v -12 z"
       enable-background="new"
       fill="#dedede"
       id="path42"
       style="fill:#ffffff;fill-opacity:1" />
  </g>
  <g
     id="media-playback-start"
     transform="translate(0,-1030.4)"
     style="fill:#000000">
    <rect
       y="1030.4"
       width="22"
       height="22"
       opacity="0.00100002"
       id="rect45"
       x="0" />
    <path
       class="ColorScheme-Text"
       d="m 6,1035.4 v 12 l 11,-6 -9.8992,-5.3996 z"
       enable-background="new"
       fill="#dedede"
       id="path47"
       style="fill:#ffffff;fill-opacity:1" />
  </g>
  <g
     id="media-playback-paused"
     class="ColorScheme-Text"
     transform="matrix(1.5,0,0,1.5,-4.6412,-1522.6)"
     color="#eaeaea"
     style="fill:#000000">
    <rect
       x="3.6666999"
       y="1034"
       width="14.667"
       height="14.667"
       fill="#ed1515"
       fill-opacity="0.00392163"
       opacity="0.01"
       id="rect50" />
    <path
       class="ColorScheme-Text"
       d="m 11.667,1039.4 h 1.3334 v 4.0002 H 11.667 Z m -2.6668,0 h 1.3334 v 4.0002 H 9.0002 Z m 2.0001,-3.3334 c -2.9548,0 -5.3335,2.3787 -5.3335,5.3335 0,2.9548 2.3788,5.3335 5.3335,5.3335 2.9548,0 5.3335,-2.3787 5.3335,-5.3335 0,-2.9548 -2.3788,-5.3335 -5.3335,-5.3335 z"
       color="#eaeaea"
       fill="#dedede"
       id="path52"
       style="fill:#ffffff;fill-opacity:1" />
  </g>
  <g
     id="media-playback-playing"
     class="ColorScheme-Text"
     transform="matrix(1.5,0,0,1.5,19.358,-1522.6)"
     color="#eaeaea"
     style="fill:#000000">
    <rect
       x="3.6670001"
       y="1034"
       width="14.667"
       height="14.667"
       fill="#ed1515"
       fill-opacity="0.00392163"
       opacity="0.01"
       id="rect55" />
    <path
       transform="matrix(0.66668,0,0,0.66668,-12.906,1015.1)"
       d="m 35.857,31.402 c -4.4324,0 -8,3.5676 -8,8 0,4.4324 3.5676,8 8,8 4.4324,0 8.002,-3.5676 8.002,-8 0,-4.4324 -3.5696,-8 -8.002,-8 z m -2,5 4,3 -4,3 z"
       color="#eaeaea"
       fill="#dedede"
       id="path57"
       style="fill:#ffffff;fill-opacity:1" />
  </g>
  <g
     id="media-playback-stopped"
     class="ColorScheme-Text"
     transform="matrix(1.5,0,0,1.5,43.358,-1522.6)"
     color="#eaeaea"
     style="fill:#000000">
    <rect
       x="3.6673"
       y="1034"
       width="14.667"
       height="14.667"
       fill="#ed1515"
       fill-opacity="0.00392163"
       opacity="0.01"
       id="rect60" />
    <path
       class="ColorScheme-Text"
       d="m 8.9999,1039.4 h 4.0002 v 4.0002 H 8.9999 Z M 11,1036.0666 c -2.9548,0 -5.3335,2.3787 -5.3335,5.3335 0,2.9548 2.3788,5.3335 5.3335,5.3335 2.9548,0 5.3335,-2.3787 5.3335,-5.3335 0,-2.9548 -2.3788,-5.3335 -5.3335,-5.3335 z"
       color="#eaeaea"
       fill="#dedede"
       id="path62"
       style="fill:#ffffff;fill-opacity:1" />
  </g>
</svg>
